<mxfile host="app.diagrams.net" modified="2022-08-27T22:36:07.006Z" agent="5.0 (Windows NT 10.0; Win64; x64) AppleWebKit/537.36 (KHTML, like Gecko) Chrome/104.0.0.0 Safari/537.36" etag="DAan_XRboLinpPS6aA-S" version="20.2.5" type="github">
  <diagram id="Ibv2He6hsy1mGw0Whq99" name="Page-1">
    <mxGraphModel dx="3015" dy="1222" grid="1" gridSize="10" guides="1" tooltips="1" connect="1" arrows="1" fold="1" page="1" pageScale="1" pageWidth="827" pageHeight="1169" math="0" shadow="0">
      <root>
        <mxCell id="0" />
        <mxCell id="1" parent="0" />
        <mxCell id="61GDngIpuByPLfd18OBp-8" value="" style="endArrow=classic;html=1;rounded=0;" edge="1" parent="1">
          <mxGeometry width="50" height="50" relative="1" as="geometry">
            <mxPoint x="200" y="299.58" as="sourcePoint" />
            <mxPoint x="330" y="299.58" as="targetPoint" />
          </mxGeometry>
        </mxCell>
        <mxCell id="61GDngIpuByPLfd18OBp-9" value="" style="endArrow=classic;html=1;rounded=0;" edge="1" parent="1">
          <mxGeometry width="50" height="50" relative="1" as="geometry">
            <mxPoint x="200" y="399.75000000000006" as="sourcePoint" />
            <mxPoint x="330" y="399.75000000000006" as="targetPoint" />
          </mxGeometry>
        </mxCell>
        <mxCell id="61GDngIpuByPLfd18OBp-10" value="" style="rounded=0;whiteSpace=wrap;html=1;fillColor=#000000;fillStyle=hatch;" vertex="1" parent="1">
          <mxGeometry x="330" y="480" width="30" height="160" as="geometry" />
        </mxCell>
        <mxCell id="61GDngIpuByPLfd18OBp-11" value="" style="endArrow=classic;html=1;rounded=0;" edge="1" parent="1">
          <mxGeometry width="50" height="50" relative="1" as="geometry">
            <mxPoint x="200" y="599.7499999999999" as="sourcePoint" />
            <mxPoint x="330" y="599.7499999999999" as="targetPoint" />
          </mxGeometry>
        </mxCell>
        <mxCell id="61GDngIpuByPLfd18OBp-12" value="" style="endArrow=classic;html=1;rounded=0;entryX=0;entryY=1;entryDx=0;entryDy=0;exitX=0.908;exitY=0.225;exitDx=0;exitDy=0;exitPerimeter=0;" edge="1" parent="1" source="61GDngIpuByPLfd18OBp-15" target="61GDngIpuByPLfd18OBp-13">
          <mxGeometry width="50" height="50" relative="1" as="geometry">
            <mxPoint x="198.07999999999993" y="530.56" as="sourcePoint" />
            <mxPoint x="330" y="529.9999999999999" as="targetPoint" />
          </mxGeometry>
        </mxCell>
        <mxCell id="61GDngIpuByPLfd18OBp-13" value="" style="rounded=0;whiteSpace=wrap;html=1;fillColor=#000000;fillStyle=hatch;" vertex="1" parent="1">
          <mxGeometry x="330" y="270" width="30" height="160" as="geometry" />
        </mxCell>
        <mxCell id="61GDngIpuByPLfd18OBp-15" value="" style="ellipse;whiteSpace=wrap;html=1;aspect=fixed;" vertex="1" parent="1">
          <mxGeometry x="140" y="500" width="60" height="60" as="geometry" />
        </mxCell>
        <mxCell id="61GDngIpuByPLfd18OBp-16" value="" style="ellipse;whiteSpace=wrap;html=1;aspect=fixed;fillColor=#FF6666;" vertex="1" parent="1">
          <mxGeometry x="157.5" y="517.5" width="25" height="25" as="geometry" />
        </mxCell>
        <mxCell id="61GDngIpuByPLfd18OBp-17" value="" style="ellipse;whiteSpace=wrap;html=1;aspect=fixed;" vertex="1" parent="1">
          <mxGeometry x="140" y="570" width="60" height="60" as="geometry" />
        </mxCell>
        <mxCell id="61GDngIpuByPLfd18OBp-18" value="" style="ellipse;whiteSpace=wrap;html=1;aspect=fixed;fillColor=#FF6666;" vertex="1" parent="1">
          <mxGeometry x="157.5" y="587.5" width="25" height="25" as="geometry" />
        </mxCell>
        <mxCell id="61GDngIpuByPLfd18OBp-19" value="" style="ellipse;whiteSpace=wrap;html=1;aspect=fixed;" vertex="1" parent="1">
          <mxGeometry x="140" y="370" width="60" height="60" as="geometry" />
        </mxCell>
        <mxCell id="61GDngIpuByPLfd18OBp-20" value="" style="ellipse;whiteSpace=wrap;html=1;aspect=fixed;fillColor=#FF6666;" vertex="1" parent="1">
          <mxGeometry x="157.5" y="387.5" width="25" height="25" as="geometry" />
        </mxCell>
        <mxCell id="61GDngIpuByPLfd18OBp-21" value="" style="ellipse;whiteSpace=wrap;html=1;aspect=fixed;" vertex="1" parent="1">
          <mxGeometry x="140" y="270" width="60" height="60" as="geometry" />
        </mxCell>
        <mxCell id="61GDngIpuByPLfd18OBp-22" value="" style="ellipse;whiteSpace=wrap;html=1;aspect=fixed;fillColor=#FF6666;" vertex="1" parent="1">
          <mxGeometry x="157.5" y="287.5" width="25" height="25" as="geometry" />
        </mxCell>
        <mxCell id="61GDngIpuByPLfd18OBp-25" value="" style="endArrow=classic;html=1;rounded=0;" edge="1" parent="1">
          <mxGeometry width="50" height="50" relative="1" as="geometry">
            <mxPoint x="360" y="559.29" as="sourcePoint" />
            <mxPoint x="490" y="559.29" as="targetPoint" />
          </mxGeometry>
        </mxCell>
        <mxCell id="61GDngIpuByPLfd18OBp-26" value="" style="ellipse;whiteSpace=wrap;html=1;aspect=fixed;" vertex="1" parent="1">
          <mxGeometry x="490" y="527.5" width="60" height="60" as="geometry" />
        </mxCell>
        <mxCell id="61GDngIpuByPLfd18OBp-28" value="" style="rounded=0;whiteSpace=wrap;html=1;fillColor=#000000;fillStyle=hatch;" vertex="1" parent="1">
          <mxGeometry x="1030" y="330" width="30" height="280" as="geometry" />
        </mxCell>
        <mxCell id="61GDngIpuByPLfd18OBp-29" value="" style="endArrow=classic;html=1;rounded=0;entryX=-0.175;entryY=0.188;entryDx=0;entryDy=0;entryPerimeter=0;" edge="1" parent="1" target="61GDngIpuByPLfd18OBp-35">
          <mxGeometry width="50" height="50" relative="1" as="geometry">
            <mxPoint x="550" y="557.14" as="sourcePoint" />
            <mxPoint x="680.0000000000002" y="557.14" as="targetPoint" />
          </mxGeometry>
        </mxCell>
        <mxCell id="61GDngIpuByPLfd18OBp-30" value="" style="endArrow=classic;html=1;rounded=0;" edge="1" parent="1">
          <mxGeometry width="50" height="50" relative="1" as="geometry">
            <mxPoint x="710" y="559.9999999999999" as="sourcePoint" />
            <mxPoint x="840.0000000000002" y="559.9999999999999" as="targetPoint" />
          </mxGeometry>
        </mxCell>
        <mxCell id="61GDngIpuByPLfd18OBp-31" value="" style="ellipse;whiteSpace=wrap;html=1;aspect=fixed;" vertex="1" parent="1">
          <mxGeometry x="840" y="530" width="60" height="60" as="geometry" />
        </mxCell>
        <mxCell id="61GDngIpuByPLfd18OBp-33" value="" style="endArrow=classic;html=1;rounded=0;" edge="1" parent="1">
          <mxGeometry width="50" height="50" relative="1" as="geometry">
            <mxPoint x="900" y="560" as="sourcePoint" />
            <mxPoint x="1030" y="560" as="targetPoint" />
          </mxGeometry>
        </mxCell>
        <mxCell id="61GDngIpuByPLfd18OBp-34" value="" style="endArrow=classic;html=1;rounded=0;" edge="1" parent="1">
          <mxGeometry width="50" height="50" relative="1" as="geometry">
            <mxPoint x="360" y="387.5" as="sourcePoint" />
            <mxPoint x="1030" y="390" as="targetPoint" />
          </mxGeometry>
        </mxCell>
        <mxCell id="61GDngIpuByPLfd18OBp-35" value="" style="rounded=0;whiteSpace=wrap;html=1;fillColor=#000000;fillStyle=hatch;" vertex="1" parent="1">
          <mxGeometry x="690" y="487.5" width="30" height="382.5" as="geometry" />
        </mxCell>
        <mxCell id="61GDngIpuByPLfd18OBp-36" value="" style="ellipse;whiteSpace=wrap;html=1;aspect=fixed;" vertex="1" parent="1">
          <mxGeometry x="490" y="642.5" width="60" height="60" as="geometry" />
        </mxCell>
        <mxCell id="61GDngIpuByPLfd18OBp-37" value="" style="ellipse;whiteSpace=wrap;html=1;aspect=fixed;" vertex="1" parent="1">
          <mxGeometry x="490" y="740" width="60" height="60" as="geometry" />
        </mxCell>
        <mxCell id="61GDngIpuByPLfd18OBp-38" value="" style="endArrow=classic;html=1;rounded=0;entryX=-0.111;entryY=0.247;entryDx=0;entryDy=0;entryPerimeter=0;" edge="1" parent="1">
          <mxGeometry width="50" height="50" relative="1" as="geometry">
            <mxPoint x="550" y="672.0199999999999" as="sourcePoint" />
            <mxPoint x="686.6700000000001" y="672.1574999999999" as="targetPoint" />
          </mxGeometry>
        </mxCell>
        <mxCell id="61GDngIpuByPLfd18OBp-39" value="" style="endArrow=classic;html=1;rounded=0;entryX=-0.111;entryY=0.247;entryDx=0;entryDy=0;entryPerimeter=0;" edge="1" parent="1">
          <mxGeometry width="50" height="50" relative="1" as="geometry">
            <mxPoint x="553.33" y="769.5199999999999" as="sourcePoint" />
            <mxPoint x="690.0000000000001" y="769.6574999999999" as="targetPoint" />
          </mxGeometry>
        </mxCell>
        <mxCell id="61GDngIpuByPLfd18OBp-40" value="" style="ellipse;whiteSpace=wrap;html=1;aspect=fixed;fillColor=#FF6666;" vertex="1" parent="1">
          <mxGeometry x="507.5" y="660" width="25" height="25" as="geometry" />
        </mxCell>
        <mxCell id="61GDngIpuByPLfd18OBp-41" value="" style="ellipse;whiteSpace=wrap;html=1;aspect=fixed;fillColor=#FF6666;" vertex="1" parent="1">
          <mxGeometry x="507.5" y="757.5" width="25" height="25" as="geometry" />
        </mxCell>
        <mxCell id="61GDngIpuByPLfd18OBp-42" value="" style="endArrow=classic;html=1;rounded=0;" edge="1" parent="1">
          <mxGeometry width="50" height="50" relative="1" as="geometry">
            <mxPoint x="490" y="769.52" as="sourcePoint" />
            <mxPoint x="400" y="770" as="targetPoint" />
          </mxGeometry>
        </mxCell>
        <mxCell id="61GDngIpuByPLfd18OBp-43" value="" style="endArrow=classic;html=1;rounded=0;" edge="1" parent="1">
          <mxGeometry width="50" height="50" relative="1" as="geometry">
            <mxPoint x="492.9255688664855" y="685.42188758645" as="sourcePoint" />
            <mxPoint x="400" y="730" as="targetPoint" />
          </mxGeometry>
        </mxCell>
        <mxCell id="61GDngIpuByPLfd18OBp-45" value="" style="rounded=0;whiteSpace=wrap;html=1;fillColor=#000000;fillStyle=hatch;" vertex="1" parent="1">
          <mxGeometry x="370" y="685" width="30" height="205" as="geometry" />
        </mxCell>
        <mxCell id="61GDngIpuByPLfd18OBp-46" value="" style="ellipse;whiteSpace=wrap;html=1;aspect=fixed;" vertex="1" parent="1">
          <mxGeometry x="490" y="820" width="60" height="60" as="geometry" />
        </mxCell>
        <mxCell id="61GDngIpuByPLfd18OBp-47" value="" style="ellipse;whiteSpace=wrap;html=1;aspect=fixed;fillColor=#FF6666;" vertex="1" parent="1">
          <mxGeometry x="507.5" y="837.5" width="25" height="25" as="geometry" />
        </mxCell>
        <mxCell id="61GDngIpuByPLfd18OBp-48" value="" style="endArrow=classic;html=1;rounded=0;" edge="1" parent="1">
          <mxGeometry width="50" height="50" relative="1" as="geometry">
            <mxPoint x="490" y="849.3299999999997" as="sourcePoint" />
            <mxPoint x="400" y="849.81" as="targetPoint" />
          </mxGeometry>
        </mxCell>
        <mxCell id="61GDngIpuByPLfd18OBp-49" value="" style="ellipse;whiteSpace=wrap;html=1;aspect=fixed;" vertex="1" parent="1">
          <mxGeometry x="220" y="740" width="60" height="60" as="geometry" />
        </mxCell>
        <mxCell id="61GDngIpuByPLfd18OBp-51" value="" style="endArrow=classic;html=1;rounded=0;" edge="1" parent="1">
          <mxGeometry width="50" height="50" relative="1" as="geometry">
            <mxPoint x="370" y="769.67" as="sourcePoint" />
            <mxPoint x="280" y="770.15" as="targetPoint" />
          </mxGeometry>
        </mxCell>
        <mxCell id="61GDngIpuByPLfd18OBp-52" value="" style="ellipse;whiteSpace=wrap;html=1;aspect=fixed;" vertex="1" parent="1">
          <mxGeometry x="220" y="820" width="60" height="60" as="geometry" />
        </mxCell>
        <mxCell id="61GDngIpuByPLfd18OBp-54" value="" style="endArrow=classic;html=1;rounded=0;" edge="1" parent="1">
          <mxGeometry width="50" height="50" relative="1" as="geometry">
            <mxPoint x="370" y="849.6699999999997" as="sourcePoint" />
            <mxPoint x="280" y="850.1500000000002" as="targetPoint" />
          </mxGeometry>
        </mxCell>
        <mxCell id="61GDngIpuByPLfd18OBp-56" value="" style="endArrow=classic;html=1;rounded=0;" edge="1" parent="1">
          <mxGeometry width="50" height="50" relative="1" as="geometry">
            <mxPoint x="220" y="769.6200000000001" as="sourcePoint" />
            <mxPoint x="130" y="770.1000000000001" as="targetPoint" />
          </mxGeometry>
        </mxCell>
        <mxCell id="61GDngIpuByPLfd18OBp-57" value="" style="endArrow=classic;html=1;rounded=0;" edge="1" parent="1">
          <mxGeometry width="50" height="50" relative="1" as="geometry">
            <mxPoint x="220" y="849.6200000000001" as="sourcePoint" />
            <mxPoint x="130" y="850.1000000000001" as="targetPoint" />
          </mxGeometry>
        </mxCell>
        <mxCell id="61GDngIpuByPLfd18OBp-58" value="" style="rounded=0;whiteSpace=wrap;html=1;fillColor=#000000;fillStyle=hatch;" vertex="1" parent="1">
          <mxGeometry x="-170" y="712.5" width="30" height="205" as="geometry" />
        </mxCell>
        <mxCell id="61GDngIpuByPLfd18OBp-59" value="" style="endArrow=classic;html=1;rounded=0;exitX=-0.084;exitY=0.427;exitDx=0;exitDy=0;exitPerimeter=0;" edge="1" parent="1" source="61GDngIpuByPLfd18OBp-61">
          <mxGeometry width="50" height="50" relative="1" as="geometry">
            <mxPoint x="100" y="800.0000000000001" as="sourcePoint" />
            <mxPoint x="10" y="800.4800000000001" as="targetPoint" />
          </mxGeometry>
        </mxCell>
        <mxCell id="61GDngIpuByPLfd18OBp-60" value="" style="ellipse;whiteSpace=wrap;html=1;aspect=fixed;" vertex="1" parent="1">
          <mxGeometry x="-50" y="775" width="60" height="60" as="geometry" />
        </mxCell>
        <mxCell id="61GDngIpuByPLfd18OBp-61" value="" style="rounded=0;whiteSpace=wrap;html=1;fillColor=#000000;fillStyle=hatch;" vertex="1" parent="1">
          <mxGeometry x="110" y="712.5" width="30" height="205" as="geometry" />
        </mxCell>
        <mxCell id="61GDngIpuByPLfd18OBp-63" value="" style="endArrow=classic;html=1;rounded=0;" edge="1" parent="1">
          <mxGeometry width="50" height="50" relative="1" as="geometry">
            <mxPoint x="-50" y="800" as="sourcePoint" />
            <mxPoint x="-140" y="800.4800000000002" as="targetPoint" />
          </mxGeometry>
        </mxCell>
        <mxCell id="61GDngIpuByPLfd18OBp-64" value="" style="endArrow=classic;html=1;rounded=0;exitX=0.039;exitY=0.796;exitDx=0;exitDy=0;exitPerimeter=0;" edge="1" parent="1" source="61GDngIpuByPLfd18OBp-17">
          <mxGeometry width="50" height="50" relative="1" as="geometry">
            <mxPoint x="-50" y="750" as="sourcePoint" />
            <mxPoint x="-140" y="750.4800000000002" as="targetPoint" />
          </mxGeometry>
        </mxCell>
        <mxCell id="61GDngIpuByPLfd18OBp-65" value="" style="ellipse;whiteSpace=wrap;html=1;aspect=fixed;" vertex="1" parent="1">
          <mxGeometry x="-320" y="770" width="60" height="60" as="geometry" />
        </mxCell>
        <mxCell id="61GDngIpuByPLfd18OBp-66" value="" style="endArrow=classic;html=1;rounded=0;" edge="1" parent="1">
          <mxGeometry width="50" height="50" relative="1" as="geometry">
            <mxPoint x="-170" y="804.62" as="sourcePoint" />
            <mxPoint x="-260" y="805.1000000000003" as="targetPoint" />
          </mxGeometry>
        </mxCell>
        <mxCell id="61GDngIpuByPLfd18OBp-70" value="" style="rounded=0;whiteSpace=wrap;html=1;fillColor=#000000;fillStyle=hatch;" vertex="1" parent="1">
          <mxGeometry x="980" y="820" width="30" height="205" as="geometry" />
        </mxCell>
        <mxCell id="61GDngIpuByPLfd18OBp-73" value="" style="curved=1;endArrow=classic;html=1;rounded=0;" edge="1" parent="1">
          <mxGeometry width="50" height="50" relative="1" as="geometry">
            <mxPoint x="250" y="880" as="sourcePoint" />
            <mxPoint x="370" y="970" as="targetPoint" />
            <Array as="points">
              <mxPoint x="250" y="930" />
              <mxPoint x="310" y="970" />
            </Array>
          </mxGeometry>
        </mxCell>
        <mxCell id="61GDngIpuByPLfd18OBp-74" value="" style="curved=1;endArrow=classic;html=1;rounded=0;exitX=0.693;exitY=0.98;exitDx=0;exitDy=0;exitPerimeter=0;" edge="1" parent="1" source="61GDngIpuByPLfd18OBp-49">
          <mxGeometry width="50" height="50" relative="1" as="geometry">
            <mxPoint x="260" y="800" as="sourcePoint" />
            <mxPoint x="370" y="940" as="targetPoint" />
            <Array as="points">
              <mxPoint x="310" y="810" />
              <mxPoint x="300" y="940" />
            </Array>
          </mxGeometry>
        </mxCell>
        <mxCell id="61GDngIpuByPLfd18OBp-75" value="" style="rounded=0;whiteSpace=wrap;html=1;fillColor=#000000;fillStyle=hatch;" vertex="1" parent="1">
          <mxGeometry x="370" y="917.5" width="30" height="170" as="geometry" />
        </mxCell>
        <mxCell id="61GDngIpuByPLfd18OBp-77" value="" style="curved=1;endArrow=classic;html=1;rounded=0;exitX=1;exitY=1;exitDx=0;exitDy=0;" edge="1" parent="1" source="61GDngIpuByPLfd18OBp-26">
          <mxGeometry width="50" height="50" relative="1" as="geometry">
            <mxPoint x="740" y="1185" as="sourcePoint" />
            <mxPoint x="370" y="1070" as="targetPoint" />
            <Array as="points">
              <mxPoint x="750" y="940" />
              <mxPoint x="460" y="1170" />
              <mxPoint x="370" y="1180" />
              <mxPoint x="290" y="1170" />
              <mxPoint x="300" y="1080" />
            </Array>
          </mxGeometry>
        </mxCell>
      </root>
    </mxGraphModel>
  </diagram>
</mxfile>
